# xmcd CD database file
#
# Track frame offsets:
#	150
#	14523
#	26721
#	45144
#	59217
#	71640
#	87513
#	103161
#	120834
#	133107
#	148230
#
# Disc length: 2254 seconds
#
# Revision: 0
# Processed by: cddbd v1.5.2PL0 Copyright (c) Steve Scherf et al.
# Submitted via: CDex 1.51
#
DISCID=a008cc0b
DTITLE=Miranda Lambert - Crazy Ex-Girlfriend
DYEAR=2007
DGENRE=Country
TTITLE0=Gunpower and Lead
TTITLE1=Dry Town
TTITLE2=Famous In A Small Town
TTITLE3=Crazy Ex-Girlfriend
TTITLE4=Love Letters
TTITLE5=Desperation
TTITLE6=More Like Her
TTITLE7=Down
TTITLE8=Guilty In Here
TTITLE9=Getting Ready
TTITLE10=Easy From Now On
EXTD=YEAR: 2007
EXTT0=
EXTT1=
EXTT2=
EXTT3=
EXTT4=
EXTT5=
EXTT6=
EXTT7=
EXTT8=
EXTT9=
EXTT10=
PLAYORDER=
